<svg xmlns="http://www.w3.org/2000/svg" viewBox="0 0 920 660" width="920" height="660" role="img" aria-label="MSSM study design">
<defs><marker id="ah" viewBox="0 0 10 10" refX="9" refY="5" markerWidth="6" markerHeight="6" orient="auto"><path d="M0,0 L10,5 L0,10 z" fill="#5b6b7a"/></marker></defs>
<rect width="920" height="660" fill="#ffffff"/>
<circle cx="34" cy="26" r="10" fill="#1f2933"/>
<text x="34" y="30" font-family="'Helvetica Neue',Helvetica,Arial,sans-serif" font-size="12" fill="#ffffff" font-weight="bold" text-anchor="middle">1</text>
<text x="52" y="31" font-family="'Helvetica Neue',Helvetica,Arial,sans-serif" font-size="13.5" fill="#1f2933" font-weight="bold" text-anchor="start">Tissue</text>
<rect x="24" y="40" width="430" height="96" rx="8" fill="#f7f9fb" stroke="#cbd5dd" stroke-width="1"/>
<text x="40" y="62" font-family="'Helvetica Neue',Helvetica,Arial,sans-serif" font-size="12" fill="#1f2933" font-weight="bold" text-anchor="start">Chicken G121</text>
<rect x="40" y="74" width="96" height="26" rx="13" fill="#2A9D8F" opacity="0.16" stroke="#2A9D8F" stroke-width="1.2"/>
<text x="88" y="91" font-family="'Helvetica Neue',Helvetica,Arial,sans-serif" font-size="11.5" fill="#2A9D8F" font-weight="bold" text-anchor="middle">Caecum</text>
<rect x="148" y="74" width="96" height="26" rx="13" fill="#E76F51" opacity="0.16" stroke="#E76F51" stroke-width="1.2"/>
<text x="196" y="91" font-family="'Helvetica Neue',Helvetica,Arial,sans-serif" font-size="11.5" fill="#E76F51" font-weight="bold" text-anchor="middle">Colon</text>
<text x="40" y="122" font-family="'Helvetica Neue',Helvetica,Arial,sans-serif" font-size="11" fill="#5b6b7a" font-weight="normal" text-anchor="start">snap-frozen, cryosectioned and photographed</text>
<rect x="274" y="58" width="70" height="60" rx="4" fill="#e8edf2" stroke="#cbd5dd"/>
<text x="309" y="92" font-family="'Helvetica Neue',Helvetica,Arial,sans-serif" font-size="10" fill="#5b6b7a" font-weight="normal" text-anchor="middle">2 mm</text>
<text x="309" y="130" font-family="'Helvetica Neue',Helvetica,Arial,sans-serif" font-size="10" fill="#5b6b7a" font-weight="normal" text-anchor="middle">cryosection</text>
<circle cx="34" cy="166" r="10" fill="#1f2933"/>
<text x="34" y="170" font-family="'Helvetica Neue',Helvetica,Arial,sans-serif" font-size="12" fill="#ffffff" font-weight="bold" text-anchor="middle">2</text>
<text x="52" y="171" font-family="'Helvetica Neue',Helvetica,Arial,sans-serif" font-size="13.5" fill="#1f2933" font-weight="bold" text-anchor="start">Laser microdissection</text>
<rect x="24" y="180" width="430" height="158" rx="8" fill="#f7f9fb" stroke="#cbd5dd" stroke-width="1"/>
<circle cx="116" cy="262" r="66" fill="#eef2f6" stroke="#cbd5dd"/>
<circle cx="116" cy="262" r="26" fill="#ffffff" stroke="#cbd5dd" stroke-dasharray="3 3"/>
<text x="116" y="265" font-family="'Helvetica Neue',Helvetica,Arial,sans-serif" font-size="9" fill="#5b6b7a" font-weight="normal" text-anchor="middle">lumen</text>
<circle cx="100.6" cy="292.9" r="3.4" fill="#2A9D8F" opacity="0.39"/>
<circle cx="76.1" cy="252.8" r="1.9" fill="#2A9D8F" opacity="0.65"/>
<circle cx="157.8" cy="272.0" r="2.0" fill="#2A9D8F" opacity="0.40"/>
<circle cx="67.2" cy="287.0" r="2.1" fill="#2A9D8F" opacity="0.48"/>
<circle cx="75.3" cy="220.1" r="3.2" fill="#2A9D8F" opacity="0.59"/>
<circle cx="147.0" cy="257.3" r="3.9" fill="#2A9D8F" opacity="0.52"/>
<circle cx="136.7" cy="288.4" r="2.5" fill="#2A9D8F" opacity="0.84"/>
<circle cx="136.0" cy="305.0" r="3.3" fill="#2A9D8F" opacity="0.57"/>
<circle cx="85.5" cy="252.6" r="1.9" fill="#2A9D8F" opacity="0.47"/>
<circle cx="97.9" cy="223.2" r="2.6" fill="#2A9D8F" opacity="0.70"/>
<circle cx="78.7" cy="273.3" r="3.7" fill="#2A9D8F" opacity="0.77"/>
<circle cx="117.8" cy="309.2" r="3.1" fill="#2A9D8F" opacity="0.88"/>
<circle cx="111.0" cy="223.7" r="4.2" fill="#2A9D8F" opacity="0.42"/>
<circle cx="70.1" cy="287.9" r="2.2" fill="#2A9D8F" opacity="0.64"/>
<circle cx="164.5" cy="274.2" r="3.6" fill="#2A9D8F" opacity="0.69"/>
<circle cx="144.0" cy="234.2" r="3.5" fill="#2A9D8F" opacity="0.71"/>
<circle cx="77.7" cy="241.0" r="3.8" fill="#2A9D8F" opacity="0.92"/>
<circle cx="66.7" cy="270.1" r="1.9" fill="#2A9D8F" opacity="0.77"/>
<circle cx="80.0" cy="214.3" r="3.8" fill="#2A9D8F" opacity="0.52"/>
<circle cx="78.3" cy="294.9" r="1.9" fill="#2A9D8F" opacity="0.63"/>
<circle cx="132.5" cy="291.2" r="1.9" fill="#2A9D8F" opacity="0.81"/>
<circle cx="141.7" cy="289.2" r="2.7" fill="#2A9D8F" opacity="0.87"/>
<circle cx="154.0" cy="283.1" r="3.1" fill="#2A9D8F" opacity="0.88"/>
<circle cx="139.6" cy="211.3" r="2.5" fill="#2A9D8F" opacity="0.60"/>
<circle cx="80.3" cy="305.8" r="4.1" fill="#2A9D8F" opacity="0.44"/>
<circle cx="132.5" cy="295.1" r="2.4" fill="#2A9D8F" opacity="0.64"/>
<circle cx="83.9" cy="241.9" r="1.8" fill="#2A9D8F" opacity="0.60"/>
<circle cx="84.0" cy="296.4" r="4.1" fill="#2A9D8F" opacity="0.76"/>
<circle cx="67.7" cy="257.3" r="3.4" fill="#2A9D8F" opacity="0.38"/>
<circle cx="159.1" cy="230.5" r="3.9" fill="#2A9D8F" opacity="0.83"/>
<circle cx="83.3" cy="288.3" r="2.0" fill="#2A9D8F" opacity="0.73"/>
<circle cx="145.6" cy="274.2" r="2.3" fill="#2A9D8F" opacity="0.45"/>
<circle cx="99.1" cy="288.7" r="1.8" fill="#2A9D8F" opacity="0.44"/>
<circle cx="148.9" cy="286.3" r="1.9" fill="#2A9D8F" opacity="0.87"/>
<circle cx="90.0" cy="239.4" r="2.4" fill="#2A9D8F" opacity="0.56"/>
<circle cx="93.9" cy="287.4" r="3.8" fill="#2A9D8F" opacity="0.95"/>
<circle cx="72.5" cy="271.4" r="2.0" fill="#2A9D8F" opacity="0.41"/>
<circle cx="95.1" cy="293.7" r="3.8" fill="#2A9D8F" opacity="0.45"/>
<circle cx="173.9" cy="270.5" r="3.1" fill="#2A9D8F" opacity="0.44"/>
<circle cx="86.3" cy="253.7" r="3.1" fill="#2A9D8F" opacity="0.94"/>
<circle cx="149.2" cy="223.5" r="2.4" fill="#2A9D8F" opacity="0.57"/>
<circle cx="142.5" cy="308.1" r="3.1" fill="#2A9D8F" opacity="0.82"/>
<circle cx="98.4" cy="294.2" r="3.7" fill="#2A9D8F" opacity="0.94"/>
<circle cx="148.6" cy="218.7" r="3.8" fill="#2A9D8F" opacity="0.79"/>
<circle cx="122.6" cy="307.0" r="2.7" fill="#2A9D8F" opacity="0.37"/>
<circle cx="153.8" cy="268.7" r="2.4" fill="#2A9D8F" opacity="0.77"/>
<circle cx="157.8" cy="250.3" r="4.0" fill="#2A9D8F" opacity="0.94"/>
<circle cx="155.3" cy="250.6" r="2.3" fill="#2A9D8F" opacity="0.49"/>
<circle cx="127.9" cy="296.1" r="3.3" fill="#2A9D8F" opacity="0.89"/>
<circle cx="139.9" cy="224.6" r="3.4" fill="#2A9D8F" opacity="0.83"/>
<circle cx="158.9" cy="287.3" r="4.0" fill="#2A9D8F" opacity="0.82"/>
<circle cx="116.0" cy="217.7" r="2.2" fill="#2A9D8F" opacity="0.82"/>
<path d="M116,196 L116,236" stroke="#1f2933" stroke-width="1.2" stroke-dasharray="2 2"/>
<circle cx="116" cy="196" r="2.4" fill="#1f2933"/>
<circle cx="116" cy="236" r="2.4" fill="#1f2933"/>
<rect x="122" y="206" width="74" height="26" rx="4" fill="#ffffff" opacity="0.92"/>
<text x="128" y="217" font-family="'Helvetica Neue',Helvetica,Arial,sans-serif" font-size="9" fill="#1f2933" font-weight="normal" text-anchor="start">distance to</text>
<text x="128" y="227" font-family="'Helvetica Neue',Helvetica,Arial,sans-serif" font-size="9" fill="#1f2933" font-weight="normal" text-anchor="start">gut wall</text>
<text x="202" y="216" font-family="'Helvetica Neue',Helvetica,Arial,sans-serif" font-size="12" fill="#1f2933" font-weight="bold" text-anchor="start">168</text>
<text x="202" y="229" font-family="'Helvetica Neue',Helvetica,Arial,sans-serif" font-size="10" fill="#5b6b7a" font-weight="normal" text-anchor="start">microsamples per section</text>
<text x="202" y="246" font-family="'Helvetica Neue',Helvetica,Arial,sans-serif" font-size="12" fill="#1f2933" font-weight="bold" text-anchor="start">5,000 µm²</text>
<text x="202" y="259" font-family="'Helvetica Neue',Helvetica,Arial,sans-serif" font-size="10" fill="#5b6b7a" font-weight="normal" text-anchor="start">area of each</text>
<text x="202" y="276" font-family="'Helvetica Neue',Helvetica,Arial,sans-serif" font-size="12" fill="#1f2933" font-weight="bold" text-anchor="start">X, Y position</text>
<text x="202" y="289" font-family="'Helvetica Neue',Helvetica,Arial,sans-serif" font-size="10" fill="#5b6b7a" font-weight="normal" text-anchor="start">recorded per microsample</text>
<text x="202" y="306" font-family="'Helvetica Neue',Helvetica,Arial,sans-serif" font-size="12" fill="#1f2933" font-weight="bold" text-anchor="start">≈ biomass</text>
<text x="202" y="319" font-family="'Helvetica Neue',Helvetica,Arial,sans-serif" font-size="10" fill="#5b6b7a" font-weight="normal" text-anchor="start">dot size above</text>
<circle cx="34" cy="368" r="10" fill="#1f2933"/>
<text x="34" y="372" font-family="'Helvetica Neue',Helvetica,Arial,sans-serif" font-size="12" fill="#ffffff" font-weight="bold" text-anchor="middle">3</text>
<text x="52" y="373" font-family="'Helvetica Neue',Helvetica,Arial,sans-serif" font-size="13.5" fill="#1f2933" font-weight="bold" text-anchor="start">Libraries and sequencing</text>
<rect x="24" y="382" width="430" height="240" rx="8" fill="#fdf4e6" stroke="#e0a458" stroke-width="1.5"/>
<text x="40" y="404" font-family="'Helvetica Neue',Helvetica,Arial,sans-serif" font-size="12" fill="#a8641c" font-weight="bold" text-anchor="start">The step that makes MSSM unusual</text>
<rect x="46" y="418" width="20" height="58" rx="3" fill="#ffffff" stroke="#5b6b7a" stroke-width="1"/>
<rect x="48" y="427.6" width="16" height="46.4" rx="2" fill="#4a6ab7" opacity="0.8"/>
<rect x="80" y="418" width="20" height="58" rx="3" fill="#ffffff" stroke="#5b6b7a" stroke-width="1"/>
<rect x="82" y="457.8" width="16" height="16.2" rx="2" fill="#4a6ab7" opacity="0.8"/>
<rect x="114" y="418" width="20" height="58" rx="3" fill="#ffffff" stroke="#5b6b7a" stroke-width="1"/>
<rect x="116" y="440.5" width="16" height="33.5" rx="2" fill="#4a6ab7" opacity="0.8"/>
<rect x="148" y="418" width="20" height="58" rx="3" fill="#ffffff" stroke="#5b6b7a" stroke-width="1"/>
<rect x="150" y="466.4" width="16" height="7.6" rx="2" fill="#4a6ab7" opacity="0.8"/>
<rect x="182" y="418" width="20" height="58" rx="3" fill="#ffffff" stroke="#5b6b7a" stroke-width="1"/>
<rect x="184" y="422.7" width="16" height="51.3" rx="2" fill="#4a6ab7" opacity="0.8"/>
<text x="46" y="490" font-family="'Helvetica Neue',Helvetica,Arial,sans-serif" font-size="10" fill="#5b6b7a" font-weight="normal" text-anchor="start">same 15 PCR cycles · different yields</text>
<path d="M224,447 L256,447" stroke="#5b6b7a" stroke-width="1.6" fill="none" marker-end="url(#ah)"/>
<text x="240" y="436" font-family="'Helvetica Neue',Helvetica,Arial,sans-serif" font-size="9.5" fill="#5b6b7a" font-weight="normal" text-anchor="middle">pool</text>
<text x="240" y="462" font-family="'Helvetica Neue',Helvetica,Arial,sans-serif" font-size="9.5" fill="#5b6b7a" font-weight="normal" text-anchor="middle">as-is</text>
<rect x="268" y="418" width="168" height="58" rx="4" fill="#ffffff" stroke="#5b6b7a"/>
<rect x="268.0" y="419" width="50.3" height="56" fill="#4a6ab7" opacity="0.8" stroke="#ffffff" stroke-width="1.2"/>
<rect x="318.3" y="419" width="17.6" height="56" fill="#4a6ab7" opacity="0.8" stroke="#ffffff" stroke-width="1.2"/>
<rect x="335.9" y="419" width="36.3" height="56" fill="#4a6ab7" opacity="0.8" stroke="#ffffff" stroke-width="1.2"/>
<rect x="372.2" y="419" width="8.2" height="56" fill="#4a6ab7" opacity="0.8" stroke="#ffffff" stroke-width="1.2"/>
<rect x="380.4" y="419" width="55.6" height="56" fill="#4a6ab7" opacity="0.8" stroke="#ffffff" stroke-width="1.2"/>
<text x="352.0" y="490" font-family="'Helvetica Neue',Helvetica,Arial,sans-serif" font-size="10" fill="#5b6b7a" font-weight="normal" text-anchor="middle">one run per cryosection</text>
<line x1="40" y1="506" x2="438" y2="506" stroke="#e0a458" stroke-dasharray="3 3"/>
<text x="46" y="524" font-family="'Helvetica Neue',Helvetica,Arial,sans-serif" font-size="10" fill="#8a99a8" font-weight="bold" text-anchor="start">Standard metagenomics</text>
<text x="270" y="524" font-family="'Helvetica Neue',Helvetica,Arial,sans-serif" font-size="10" fill="#a8641c" font-weight="bold" text-anchor="start">MSSM</text>
<text x="46" y="546" font-family="'Helvetica Neue',Helvetica,Arial,sans-serif" font-size="10" fill="#5b6b7a" font-weight="normal" text-anchor="start">quantify, pool equimolarly</text>
<text x="270" y="546" font-family="'Helvetica Neue',Helvetica,Arial,sans-serif" font-size="10" fill="#1f2933" font-weight="bold" text-anchor="start">no normalisation</text>
<text x="46" y="568" font-family="'Helvetica Neue',Helvetica,Arial,sans-serif" font-size="10" fill="#5b6b7a" font-weight="normal" text-anchor="start">every sample ≈ equal reads</text>
<text x="270" y="568" font-family="'Helvetica Neue',Helvetica,Arial,sans-serif" font-size="10" fill="#1f2933" font-weight="bold" text-anchor="start">reads follow DNA in</text>
<text x="46" y="590" font-family="'Helvetica Neue',Helvetica,Arial,sans-serif" font-size="10" fill="#5b6b7a" font-weight="normal" text-anchor="start">depth = nuisance</text>
<text x="270" y="590" font-family="'Helvetica Neue',Helvetica,Arial,sans-serif" font-size="10" fill="#1f2933" font-weight="bold" text-anchor="start">depth ≈ biomass</text>
<text x="256" y="524" font-family="'Helvetica Neue',Helvetica,Arial,sans-serif" font-size="10" fill="#5b6b7a" font-weight="normal" text-anchor="middle">→</text>
<circle cx="496" cy="26" r="10" fill="#1f2933"/>
<text x="496" y="30" font-family="'Helvetica Neue',Helvetica,Arial,sans-serif" font-size="12" fill="#ffffff" font-weight="bold" text-anchor="middle">4</text>
<text x="514" y="31" font-family="'Helvetica Neue',Helvetica,Arial,sans-serif" font-size="13.5" fill="#1f2933" font-weight="bold" text-anchor="start">Mapping and filtering</text>
<rect x="486" y="40" width="410" height="298" rx="8" fill="#f7f9fb" stroke="#cbd5dd" stroke-width="1"/>
<text x="502" y="64" font-family="'Helvetica Neue',Helvetica,Arial,sans-serif" font-size="12" fill="#1f2933" font-weight="bold" text-anchor="start">223 MAGs</text>
<text x="502" y="78" font-family="'Helvetica Neue',Helvetica,Arial,sans-serif" font-size="10" fill="#5b6b7a" font-weight="normal" text-anchor="start">assembled beforehand from macro-scale sequencing</text>
<rect x="502" y="90" width="378" height="1" fill="#cbd5dd"/>
<rect x="502" y="108" width="378" height="40" rx="5" fill="#eef2f6" stroke="#cbd5dd"/>
<text x="514" y="126" font-family="'Helvetica Neue',Helvetica,Arial,sans-serif" font-size="11.5" fill="#1f2933" font-weight="bold" text-anchor="start">reads per microsample</text>
<text x="514" y="140" font-family="'Helvetica Neue',Helvetica,Arial,sans-serif" font-size="9.5" fill="#5b6b7a" font-weight="normal" text-anchor="start">raw sequencing output</text>
<path d="M691.0,150 L691.0,167" stroke="#5b6b7a" stroke-width="1.6" fill="none" marker-end="url(#ah)"/>
<rect x="502" y="170" width="378" height="40" rx="5" fill="#eef2f6" stroke="#cbd5dd"/>
<text x="514" y="188" font-family="'Helvetica Neue',Helvetica,Arial,sans-serif" font-size="11.5" fill="#1f2933" font-weight="bold" text-anchor="start">read counts  ·  covered bases</text>
<text x="514" y="202" font-family="'Helvetica Neue',Helvetica,Arial,sans-serif" font-size="9.5" fill="#5b6b7a" font-weight="normal" text-anchor="start">one value per genome × microsample</text>
<path d="M691.0,212 L691.0,229" stroke="#5b6b7a" stroke-width="1.6" fill="none" marker-end="url(#ah)"/>
<rect x="502" y="232" width="378" height="40" rx="5" fill="#fdf4e6" stroke="#cbd5dd"/>
<text x="514" y="250" font-family="'Helvetica Neue',Helvetica,Arial,sans-serif" font-size="11.5" fill="#1f2933" font-weight="bold" text-anchor="start">breadth-of-coverage filter  ≥ 30 %</text>
<text x="514" y="264" font-family="'Helvetica Neue',Helvetica,Arial,sans-serif" font-size="9.5" fill="#5b6b7a" font-weight="normal" text-anchor="start">removes cross-mapping noise</text>
<path d="M691.0,274 L691.0,291" stroke="#5b6b7a" stroke-width="1.6" fill="none" marker-end="url(#ah)"/>
<rect x="502" y="294" width="378" height="40" rx="5" fill="#e9f3f1" stroke="#cbd5dd"/>
<text x="514" y="312" font-family="'Helvetica Neue',Helvetica,Arial,sans-serif" font-size="11.5" fill="#1f2933" font-weight="bold" text-anchor="start">genome counts</text>
<text x="514" y="326" font-family="'Helvetica Neue',Helvetica,Arial,sans-serif" font-size="9.5" fill="#5b6b7a" font-weight="normal" text-anchor="start">length-normalised community table</text>
<circle cx="496" cy="368" r="10" fill="#1f2933"/>
<text x="496" y="372" font-family="'Helvetica Neue',Helvetica,Arial,sans-serif" font-size="12" fill="#ffffff" font-weight="bold" text-anchor="middle">5</text>
<text x="514" y="373" font-family="'Helvetica Neue',Helvetica,Arial,sans-serif" font-size="13.5" fill="#1f2933" font-weight="bold" text-anchor="start">Five tables → extended RLQ</text>
<rect x="486" y="382" width="410" height="240" rx="8" fill="#f7f9fb" stroke="#cbd5dd" stroke-width="1"/>
<rect x="502" y="400" width="24" height="24" rx="4" fill="#4a6ab7" opacity="0.16" stroke="#4a6ab7"/>
<text x="514" y="417" font-family="'Helvetica Neue',Helvetica,Arial,sans-serif" font-size="13" fill="#4a6ab7" font-weight="bold" text-anchor="middle">E</text>
<text x="536" y="411" font-family="'Helvetica Neue',Helvetica,Arial,sans-serif" font-size="11" fill="#1f2933" font-weight="bold" text-anchor="start">environment</text>
<text x="604" y="410" font-family="'Helvetica Neue',Helvetica,Arial,sans-serif" font-size="9.5" fill="#5b6b7a" font-weight="normal" text-anchor="start">depth ≈ biomass, richness,</text>
<text x="604" y="421" font-family="'Helvetica Neue',Helvetica,Arial,sans-serif" font-size="9.5" fill="#5b6b7a" font-weight="normal" text-anchor="start">distance to gut wall</text>
<rect x="502" y="434" width="24" height="24" rx="4" fill="#4a6ab7" opacity="0.16" stroke="#4a6ab7"/>
<text x="514" y="451" font-family="'Helvetica Neue',Helvetica,Arial,sans-serif" font-size="13" fill="#4a6ab7" font-weight="bold" text-anchor="middle">S</text>
<text x="536" y="445" font-family="'Helvetica Neue',Helvetica,Arial,sans-serif" font-size="11" fill="#1f2933" font-weight="bold" text-anchor="start">space</text>
<text x="604" y="444" font-family="'Helvetica Neue',Helvetica,Arial,sans-serif" font-size="9.5" fill="#5b6b7a" font-weight="normal" text-anchor="start">Gabriel neighbour graph</text>
<text x="604" y="455" font-family="'Helvetica Neue',Helvetica,Arial,sans-serif" font-size="9.5" fill="#5b6b7a" font-weight="normal" text-anchor="start">of microsample positions</text>
<rect x="502" y="468" width="24" height="24" rx="4" fill="#1f2933" opacity="0.16" stroke="#1f2933"/>
<text x="514" y="485" font-family="'Helvetica Neue',Helvetica,Arial,sans-serif" font-size="13" fill="#1f2933" font-weight="bold" text-anchor="middle">L</text>
<text x="536" y="479" font-family="'Helvetica Neue',Helvetica,Arial,sans-serif" font-size="11" fill="#1f2933" font-weight="bold" text-anchor="start">community</text>
<text x="604" y="478" font-family="'Helvetica Neue',Helvetica,Arial,sans-serif" font-size="9.5" fill="#5b6b7a" font-weight="normal" text-anchor="start">genome counts,</text>
<text x="604" y="489" font-family="'Helvetica Neue',Helvetica,Arial,sans-serif" font-size="9.5" fill="#5b6b7a" font-weight="normal" text-anchor="start">Hellinger-transformed</text>
<rect x="502" y="502" width="24" height="24" rx="4" fill="#2A9D8F" opacity="0.16" stroke="#2A9D8F"/>
<text x="514" y="519" font-family="'Helvetica Neue',Helvetica,Arial,sans-serif" font-size="13" fill="#2A9D8F" font-weight="bold" text-anchor="middle">T</text>
<text x="536" y="513" font-family="'Helvetica Neue',Helvetica,Arial,sans-serif" font-size="11" fill="#1f2933" font-weight="bold" text-anchor="start">traits</text>
<text x="604" y="512" font-family="'Helvetica Neue',Helvetica,Arial,sans-serif" font-size="9.5" fill="#5b6b7a" font-weight="normal" text-anchor="start">metabolic capacity</text>
<text x="604" y="523" font-family="'Helvetica Neue',Helvetica,Arial,sans-serif" font-size="9.5" fill="#5b6b7a" font-weight="normal" text-anchor="start">(GIFT), ordinated</text>
<rect x="502" y="536" width="24" height="24" rx="4" fill="#2A9D8F" opacity="0.16" stroke="#2A9D8F"/>
<text x="514" y="553" font-family="'Helvetica Neue',Helvetica,Arial,sans-serif" font-size="13" fill="#2A9D8F" font-weight="bold" text-anchor="middle">P</text>
<text x="536" y="547" font-family="'Helvetica Neue',Helvetica,Arial,sans-serif" font-size="11" fill="#1f2933" font-weight="bold" text-anchor="start">phylogeny</text>
<text x="604" y="546" font-family="'Helvetica Neue',Helvetica,Arial,sans-serif" font-size="9.5" fill="#5b6b7a" font-weight="normal" text-anchor="start">distances on the</text>
<text x="604" y="557" font-family="'Helvetica Neue',Helvetica,Arial,sans-serif" font-size="9.5" fill="#5b6b7a" font-weight="normal" text-anchor="start">MAG tree</text>
<rect x="502" y="578" width="378" height="30" rx="5" fill="#1f2933"/>
<text x="691.0" y="597" font-family="'Helvetica Neue',Helvetica,Arial,sans-serif" font-size="11" fill="#ffffff" font-weight="bold" text-anchor="middle">axes where space and genome biology covary</text>
</svg>